<svg xmlns="http://www.w3.org/2000/svg" width="160mm" height="93.133mm" viewBox="0 0 453.5433 264">
<rect width="100%" height="100%" fill="white"/>
<text x="18" y="17.4" font-family="Arial, DejaVu Sans, sans-serif" font-size="10" font-weight="700" text-anchor="start" fill="#000000">Chọn 3 MRI trong cửa sổ 18 tháng: baseline ≤ s₁ &lt; s₂ &lt; s₃ ≤ L</text>
<polygon points="31,47 38,40 109,40 102,47" fill="#F0F6FC" stroke="#567DA3" stroke-width="1"/>
<polygon points="102,47 109,40 109,76 102,83" fill="#C7D7E7" stroke="#567DA3" stroke-width="1"/>
<polygon points="31,47 102,47 102,83 31,83" fill="#E7F0FA" stroke="#567DA3" stroke-width="1"/>
<text x="66.5" y="62.62499999999999" font-family="Arial, DejaVu Sans, sans-serif" font-size="9.5" font-weight="700" text-anchor="middle" fill="#000000">T1 MRI</text>
<text x="66.5" y="74.405" font-family="Arial, DejaVu Sans, sans-serif" font-size="9.5" font-weight="400" text-anchor="middle" fill="#000000">Visit 1: s₁</text>
<text x="70" y="98.98" font-family="Arial, DejaVu Sans, sans-serif" font-size="9.5" font-weight="400" text-anchor="middle" fill="#000000">+ R + C</text>
<polyline points="70,108 70,130" fill="none" stroke="#5C6B79" stroke-width="1.1" stroke-linejoin="round"/>
<polygon points="70,130 72.5,125.0 67.5,125.0" fill="#5C6B79"/>
<polygon points="121,47 128,40 199,40 192,47" fill="#F0F6FC" stroke="#567DA3" stroke-width="1"/>
<polygon points="192,47 199,40 199,76 192,83" fill="#C7D7E7" stroke="#567DA3" stroke-width="1"/>
<polygon points="121,47 192,47 192,83 121,83" fill="#E7F0FA" stroke="#567DA3" stroke-width="1"/>
<text x="156.5" y="62.62499999999999" font-family="Arial, DejaVu Sans, sans-serif" font-size="9.5" font-weight="700" text-anchor="middle" fill="#000000">T1 MRI</text>
<text x="156.5" y="74.405" font-family="Arial, DejaVu Sans, sans-serif" font-size="9.5" font-weight="400" text-anchor="middle" fill="#000000">Visit 2: s₂</text>
<text x="160" y="98.98" font-family="Arial, DejaVu Sans, sans-serif" font-size="9.5" font-weight="400" text-anchor="middle" fill="#000000">+ R + C</text>
<polyline points="160,108 160,130" fill="none" stroke="#5C6B79" stroke-width="1.1" stroke-linejoin="round"/>
<polygon points="160,130 162.5,125.0 157.5,125.0" fill="#5C6B79"/>
<polygon points="211,47 218,40 289,40 282,47" fill="#F0F6FC" stroke="#567DA3" stroke-width="1"/>
<polygon points="282,47 289,40 289,76 282,83" fill="#C7D7E7" stroke="#567DA3" stroke-width="1"/>
<polygon points="211,47 282,47 282,83 211,83" fill="#E7F0FA" stroke="#567DA3" stroke-width="1"/>
<text x="246.5" y="62.62499999999999" font-family="Arial, DejaVu Sans, sans-serif" font-size="9.5" font-weight="700" text-anchor="middle" fill="#000000">T1 MRI</text>
<text x="246.5" y="74.405" font-family="Arial, DejaVu Sans, sans-serif" font-size="9.5" font-weight="400" text-anchor="middle" fill="#000000">Visit 3: p</text>
<text x="250" y="98.98" font-family="Arial, DejaVu Sans, sans-serif" font-size="9.5" font-weight="400" text-anchor="middle" fill="#000000">+ R + C</text>
<polyline points="250,108 250,130" fill="none" stroke="#5C6B79" stroke-width="1.1" stroke-linejoin="round"/>
<polygon points="250,130 252.5,125.0 247.5,125.0" fill="#5C6B79"/>
<polyline points="18,135 437,135" fill="none" stroke="#5C6B79" stroke-width="1.1" stroke-linejoin="round"/>
<polygon points="437,135 432.0,132.5 432.0,137.5" fill="#5C6B79"/>
<polyline points="25,128 25,143" fill="none" stroke="#5C6B79" stroke-width="1.1" stroke-linejoin="round"/>
<text x="18" y="156.98" font-family="Arial, DejaVu Sans, sans-serif" font-size="9.5" font-weight="400" text-anchor="start" fill="#000000">Baseline</text>
<polyline points="250,130 250,143" fill="none" stroke="#5C6B79" stroke-width="1.5" stroke-linejoin="round"/>
<text x="250" y="156.98" font-family="Arial, DejaVu Sans, sans-serif" font-size="9.5" font-weight="700" text-anchor="middle" fill="#000000">Dự đoán tại p</text>
<polyline points="332,112 332,178" fill="none" stroke="#5C6B79" stroke-width="1.1" stroke-linejoin="round" stroke-dasharray="4 3"/>
<text x="327" y="190.98" font-family="Arial, DejaVu Sans, sans-serif" font-size="9.5" font-weight="400" text-anchor="end" fill="#000000">L = baseline + 18 tháng</text>
<rect x="352" y="40" width="87" height="45" rx="4" fill="#EEF0F2" stroke="#77838F" stroke-width="1"/>
<text x="395.5" y="60.0" font-family="Arial, DejaVu Sans, sans-serif" font-size="10" font-weight="700" text-anchor="middle" fill="#000000">Tiến triển*</text>
<text x="395.5" y="72.4" font-family="Arial, DejaVu Sans, sans-serif" font-size="10" font-weight="400" text-anchor="middle" fill="#000000">Sau L</text>
<rect x="352" y="207" width="87" height="45" rx="4" fill="#EEF0F2" stroke="#77838F" stroke-width="1"/>
<text x="395.5" y="227.0" font-family="Arial, DejaVu Sans, sans-serif" font-size="10" font-weight="700" text-anchor="middle" fill="#000000">Kiểm duyệt</text>
<text x="395.5" y="239.4" font-family="Arial, DejaVu Sans, sans-serif" font-size="10" font-weight="400" text-anchor="middle" fill="#000000">Sau L</text>
<polyline points="340,135 346,135 346,62 352,62" fill="none" stroke="#5C6B79" stroke-width="1.1" stroke-linejoin="round"/>
<polygon points="352,62 347.0,59.5 347.0,64.5" fill="#5C6B79"/>
<polyline points="340,135 346,135 346,230 352,230" fill="none" stroke="#5C6B79" stroke-width="1.1" stroke-linejoin="round"/>
<polygon points="352,230 347.0,227.5 347.0,232.5" fill="#5C6B79"/>
<polyline points="25,218 25,226 332,226 332,218" fill="none" stroke="#6590A5" stroke-width="1.1" stroke-linejoin="round"/>
<text x="178" y="241.98" font-family="Arial, DejaVu Sans, sans-serif" font-size="9.5" font-weight="400" text-anchor="middle" fill="#000000">Điều kiện: không tiến triển sớm đến hết L</text>
</svg>