<svg xmlns="http://www.w3.org/2000/svg" width="160mm" height="115.006mm" viewBox="0 0 453.5433 326">
<rect width="100%" height="100%" fill="white"/>
<text x="112" y="15.4" font-family="Arial, DejaVu Sans, sans-serif" font-size="10" font-weight="700" text-anchor="middle" fill="#263B4D">FULL OUTER PRODUCT</text>
<text x="342" y="15.4" font-family="Arial, DejaVu Sans, sans-serif" font-size="10" font-weight="700" text-anchor="middle" fill="#263B4D">CP-FACTORIZED WEIGHTS</text>
<polyline points="227,30 227,257" fill="none" stroke="#B4BEC7" stroke-width="1.1" stroke-linejoin="round" stroke-dasharray="4 3"/>
<rect x="14" y="37" width="57" height="34" rx="4" fill="#E7F0FA" stroke="#567DA3" stroke-width="1"/>
<text x="42.5" y="51.5" font-family="Arial, DejaVu Sans, sans-serif" font-size="10" font-weight="700" text-anchor="middle" fill="#263B4D">x</text>
<text x="42.5" y="63.9" font-family="Arial, DejaVu Sans, sans-serif" font-size="10" font-weight="400" text-anchor="middle" fill="#263B4D">dₓ</text>
<rect x="150" y="37" width="57" height="34" rx="4" fill="#EAF3E9" stroke="#638560" stroke-width="1"/>
<text x="178.5" y="51.5" font-family="Arial, DejaVu Sans, sans-serif" font-size="10" font-weight="700" text-anchor="middle" fill="#263B4D">y</text>
<text x="178.5" y="63.9" font-family="Arial, DejaVu Sans, sans-serif" font-size="10" font-weight="400" text-anchor="middle" fill="#263B4D">dᵧ</text>
<rect x="56" y="99" width="112" height="37" rx="4" fill="#FAE9ED" stroke="#A87984" stroke-width="1"/>
<text x="112.0" y="115.0" font-family="Arial, DejaVu Sans, sans-serif" font-size="10" font-weight="700" text-anchor="middle" fill="#263B4D">x ⊗ y</text>
<text x="112.0" y="127.4" font-family="Arial, DejaVu Sans, sans-serif" font-size="10" font-weight="400" text-anchor="middle" fill="#263B4D">dₓ × dᵧ</text>
<polyline points="42,71 42,118 56,118" fill="none" stroke="#5C6B79" stroke-width="1.1" stroke-linejoin="round"/>
<polygon points="56,118 51.0,115.5 51.0,120.5" fill="#5C6B79"/>
<polyline points="178,71 178,118 168,118" fill="none" stroke="#5C6B79" stroke-width="1.1" stroke-linejoin="round"/>
<polygon points="168,118 173.0,120.5 173.0,115.5" fill="#5C6B79"/>
<rect x="31" y="157" width="161" height="36" rx="4" fill="#FAE9ED" stroke="#A87984" stroke-width="1"/>
<text x="111.5" y="172.5" font-family="Arial, DejaVu Sans, sans-serif" font-size="10" font-weight="700" text-anchor="middle" fill="#263B4D">Flatten + Linear</text>
<text x="111.5" y="184.9" font-family="Arial, DejaVu Sans, sans-serif" font-size="10" font-weight="400" text-anchor="middle" fill="#263B4D">dₓdᵧ → H</text>
<polyline points="112,136 112,157" fill="none" stroke="#5C6B79" stroke-width="1.1" stroke-linejoin="round"/>
<polygon points="112,157 114.5,152.0 109.5,152.0" fill="#5C6B79"/>
<rect x="32" y="214" width="159" height="42" rx="4" fill="#EEEAF6" stroke="#86759D" stroke-width="1"/>
<text x="111.5" y="232.625" font-family="Arial, DejaVu Sans, sans-serif" font-size="9.5" font-weight="700" text-anchor="middle" fill="#263B4D">Post-MLP (giữ nguyên)</text>
<text x="111.5" y="244.405" font-family="Arial, DejaVu Sans, sans-serif" font-size="9.5" font-weight="400" text-anchor="middle" fill="#263B4D">GELU · dropout · Linear · LN</text>
<polyline points="112,193 112,214" fill="none" stroke="#5C6B79" stroke-width="1.1" stroke-linejoin="round"/>
<polygon points="112,214 114.5,209.0 109.5,209.0" fill="#5C6B79"/>
<rect x="245" y="37" width="70" height="34" rx="4" fill="#E7F0FA" stroke="#567DA3" stroke-width="1"/>
<text x="280.0" y="51.5" font-family="Arial, DejaVu Sans, sans-serif" font-size="10" font-weight="700" text-anchor="middle" fill="#263B4D">x → Aᵀx</text>
<text x="280.0" y="63.9" font-family="Arial, DejaVu Sans, sans-serif" font-size="10" font-weight="400" text-anchor="middle" fill="#263B4D">Q</text>
<rect x="370" y="37" width="70" height="34" rx="4" fill="#EAF3E9" stroke="#638560" stroke-width="1"/>
<text x="405.0" y="51.5" font-family="Arial, DejaVu Sans, sans-serif" font-size="10" font-weight="700" text-anchor="middle" fill="#263B4D">y → Bᵀy</text>
<text x="405.0" y="63.9" font-family="Arial, DejaVu Sans, sans-serif" font-size="10" font-weight="400" text-anchor="middle" fill="#263B4D">Q</text>
<rect x="294" y="99" width="98" height="37" rx="4" fill="#FAE9ED" stroke="#A87984" stroke-width="1"/>
<text x="343.0" y="115.0" font-family="Arial, DejaVu Sans, sans-serif" font-size="10" font-weight="700" text-anchor="middle" fill="#263B4D">q = u ⊙ v</text>
<text x="343.0" y="127.4" font-family="Arial, DejaVu Sans, sans-serif" font-size="10" font-weight="400" text-anchor="middle" fill="#263B4D">Q</text>
<polyline points="280,71 280,118 294,118" fill="none" stroke="#5C6B79" stroke-width="1.1" stroke-linejoin="round"/>
<polygon points="294,118 289.0,115.5 289.0,120.5" fill="#5C6B79"/>
<polyline points="405,71 405,118 392,118" fill="none" stroke="#5C6B79" stroke-width="1.1" stroke-linejoin="round"/>
<polygon points="392,118 397.0,120.5 397.0,115.5" fill="#5C6B79"/>
<rect x="263" y="157" width="161" height="36" rx="4" fill="#FAE9ED" stroke="#A87984" stroke-width="1"/>
<text x="343.5" y="172.5" font-family="Arial, DejaVu Sans, sans-serif" font-size="10" font-weight="700" text-anchor="middle" fill="#263B4D">h = Oq + b</text>
<text x="343.5" y="184.9" font-family="Arial, DejaVu Sans, sans-serif" font-size="10" font-weight="400" text-anchor="middle" fill="#263B4D">Q → H</text>
<polyline points="343,136 343,157" fill="none" stroke="#5C6B79" stroke-width="1.1" stroke-linejoin="round"/>
<polygon points="343,157 345.5,152.0 340.5,152.0" fill="#5C6B79"/>
<rect x="264" y="214" width="159" height="42" rx="4" fill="#EEEAF6" stroke="#86759D" stroke-width="1"/>
<text x="343.5" y="232.625" font-family="Arial, DejaVu Sans, sans-serif" font-size="9.5" font-weight="700" text-anchor="middle" fill="#263B4D">Post-MLP (giữ nguyên)</text>
<text x="343.5" y="244.405" font-family="Arial, DejaVu Sans, sans-serif" font-size="9.5" font-weight="400" text-anchor="middle" fill="#263B4D">GELU · dropout · Linear · LN</text>
<polyline points="343,193 343,214" fill="none" stroke="#5C6B79" stroke-width="1.1" stroke-linejoin="round"/>
<polygon points="343,214 345.5,209.0 340.5,209.0" fill="#5C6B79"/>
<text x="227" y="280.4" font-family="Arial, DejaVu Sans, sans-serif" font-size="10" font-weight="400" text-anchor="middle" fill="#263B4D">W ∈ ℝ^(H × dₓ × dᵧ) ≈ Σ o_q ⊗ a_q ⊗ b_q</text>
<text x="227" y="298.98" font-family="Arial, DejaVu Sans, sans-serif" font-size="9.5" font-weight="400" text-anchor="middle" fill="#263B4D">MR: 32 × 32, Q=8   |   MC: 32 × 16, Q=8   |   RC: 32 × 16, Q=4</text>
<text x="227" y="316.98" font-family="Arial, DejaVu Sans, sans-serif" font-size="9.5" font-weight="700" text-anchor="middle" fill="#263B4D">Thay tensor trọng số W; không phân rã MRI hay dữ liệu bệnh nhân.</text>
</svg>